<?xml version="1.0" encoding="UTF-8"?>
<svg version="1.1" xmlns="http://www.w3.org/2000/svg" width="43" height="30">
<path d="M0 0 C14.19 0 28.38 0 43 0 C43 9.9 43 19.8 43 30 C28.81 30 14.62 30 0 30 C0 20.1 0 10.2 0 0 Z " fill="#338EDD" transform="translate(0,0)"/>
<path d="M0 0 C1.98 0 3.96 0 6 0 C6.40992188 1.14339844 6.81984375 2.28679688 7.2421875 3.46484375 C7.78608252 4.95586631 8.33037389 6.44674433 8.875 7.9375 C9.14441406 8.69224609 9.41382812 9.44699219 9.69140625 10.22460938 C10.91619414 14.35097092 10.91619414 14.35097092 14 17 C14 17.66 14 18.32 14 19 C10.7 19 7.4 19 4 19 C4 18.34 4 17.68 4 17 C4.66 17 5.32 17 6 17 C5.67 16.01 5.34 15.02 5 14 C2.69 13.67 0.38 13.34 -2 13 C-2 14.32 -2 15.64 -2 17 C-1.34 17 -0.68 17 0 17 C0 17.66 0 18.32 0 19 C-2.31 19 -4.62 19 -7 19 C-6.72414063 18.32582031 -6.44828125 17.65164062 -6.1640625 16.95703125 C-4.82618085 13.5584527 -3.59731761 10.12928907 -2.375 6.6875 C-2.14554688 6.04232422 -1.91609375 5.39714844 -1.6796875 4.73242188 C-1.1189182 3.15525821 -0.55933709 1.57767216 0 0 Z " fill="#EDF4FB" transform="translate(11,5)"/>
<path d="M0 0 C3.63 0 7.26 0 11 0 C11 0.66 11 1.32 11 2 C10.34 2 9.68 2 9 2 C9 6.95 9 11.9 9 17 C9.66 17 10.32 17 11 17 C11 17.66 11 18.32 11 19 C7.7 19 4.4 19 1 19 C1 18.34 1 17.68 1 17 C1.66 17 2.32 17 3 17 C3 12.05 3 7.1 3 2 C2.01 2 1.02 2 0 2 C0 1.34 0 0.68 0 0 Z " fill="#E8F2F9" transform="translate(25,5)"/>
<path d="M0 0 C0.66 0.33 1.32 0.66 2 1 C2.625 4.0625 2.625 4.0625 3 7 C1.35 7 -0.3 7 -2 7 C-1.34 4.69 -0.68 2.38 0 0 Z " fill="#508DD1" transform="translate(12,9)"/>
<path d="M0 0 C2.31 0 4.62 0 7 0 C5.68 1.32 4.36 2.64 3 4 C2.01 3.67 1.02 3.34 0 3 C0 2.01 0 1.02 0 0 Z " fill="#218DC8" transform="translate(28,24)"/>
</svg>
